<svg xmlns="http://www.w3.org/2000/svg" width="1440" height="612" viewBox="0 0 1440 612">
  <g fill="none" fill-rule="evenodd" stroke="#FFF" stroke-width="2" transform="translate(0 -.5)">
    <g opacity=".197" transform="translate(149.5)">
      <path d="M112.804736,212.5 L141.286879,157.5 L112.804736,102.5 L33.595437,102.5 L5.11329414,157.5 L33.595437,212.5 L112.804736,212.5 Z" opacity=".503"/>
      <path d="M205.804736 163L234.286879 108 205.804736 53 126.595437 53 98.1132941 108 126.595437 163 205.804736 163zM529.878885 390L558.361028 335 529.878885 280 450.669586 280 422.187443 335 450.669586 390 529.878885 390z" opacity=".503"/>
      <path d="M282.953034 230.5L311.435177 175.5 282.953034 120.5 203.743735 120.5 175.261592 175.5 203.743735 230.5 282.953034 230.5zM707.77065 196L736.252793 141 707.77065 86 628.561351 86 600.079208 141 628.561351 196 707.77065 196zM1000.37888 273L1028.86103 218 1000.37888 163 921.169586 163 892.687443 218 921.169586 273 1000.37888 273z" opacity=".503"/>
      <path d="M383.666227 212.5L402.826941 175.5 383.666227 138.5 330.308095 138.5 311.14738 175.5 330.308095 212.5 383.666227 212.5zM313.632141 611.5L332.792855 574.5 313.632141 537.5 260.274008 537.5 241.113294 574.5 260.274008 611.5 313.632141 611.5zM715.346839 611.5L734.507553 574.5 715.346839 537.5 661.988706 537.5 642.827992 574.5 661.988706 611.5 715.346839 611.5zM600.216913 131.5L619.377628 94.5 600.216913 57.5 546.858781 57.5 527.698067 94.5 546.858781 131.5 600.216913 131.5zM235.632141 575.5L254.792855 538.5 235.632141 501.5 182.274008 501.5 163.113294 538.5 182.274008 575.5 235.632141 575.5zM455.00709 329.5L474.167804 292.5 455.00709 255.5 401.648957 255.5 382.488243 292.5 401.648957 329.5 455.00709 329.5z" opacity=".503"/>
      <path d="M719.632141 555L738.792855 518 719.632141 481 666.274008 481 647.113294 518 666.274008 555 719.632141 555zM604.502216 75.5L623.66293 38.5 604.502216 1.5 551.144083 1.5 531.983369 38.5 551.144083 75.5 604.502216 75.5zM888.132141 320.5L907.292855 283.5 888.132141 246.5 834.774008 246.5 815.613294 283.5 834.774008 320.5 888.132141 320.5zM863.729753 106.5L882.890467 69.5 863.729753 32.5 810.37162 32.5 791.210906 69.5 810.37162 106.5 863.729753 106.5zM880.700313 560.5L899.861028 523.5 880.700313 486.5 827.342181 486.5 808.181467 523.5 827.342181 560.5 880.700313 560.5zM764.493256 74L782.877185 38.5 764.493256 3 713.289387 3 694.905459 38.5 713.289387 74 764.493256 74zM666.700313 341.5L685.861028 304.5 666.700313 267.5 613.342181 267.5 594.181467 304.5 613.342181 341.5 666.700313 341.5zM232.743251 75.5L251.903965 38.5 232.743251 1.5 179.385118 1.5 160.224404 38.5 179.385118 75.5 232.743251 75.5z" opacity=".503"/>
      <path d="M758.13856 494L777.299275 457 758.13856 420 704.780428 420 685.619714 457 704.780428 494 758.13856 494zM1094.88424 440.5L1114.04496 403.5 1094.88424 366.5 1041.52611 366.5 1022.3654 403.5 1041.52611 440.5 1094.88424 440.5zM578.666227 560.5L597.826941 523.5 578.666227 486.5 525.308095 486.5 506.14738 523.5 525.308095 560.5 578.666227 560.5zM380.240376 329.5L399.40109 292.5 380.240376 255.5 326.882244 255.5 307.721529 292.5 326.882244 329.5 380.240376 329.5zM1090.61598 196L1109.7767 159 1090.61598 122 1037.25785 122 1018.09714 159 1037.25785 196 1090.61598 196zM838.496682 205.5L857.657396 168.5 838.496682 131.5 785.13855 131.5 765.977835 168.5 785.13855 205.5 838.496682 205.5zM208.397108 316.5L243.870322 248 208.397108 179.5 109.799434 179.5 74.3262197 248 109.799434 316.5 208.397108 316.5z" opacity=".503"/>
      <path d="M873.665367 522.5L909.138581 454 873.665367 385.5 775.067693 385.5 739.594479 454 775.067693 522.5 873.665367 522.5zM297.184182 459.5L332.657396 391 297.184182 322.5 198.586508 322.5 163.113294 391 198.586508 459.5 297.184182 459.5z" opacity=".503"/>
      <path d="M395.184182,537.5 L430.657396,469 L395.184182,400.5 L296.586508,400.5 L261.113294,469 L296.586508,537.5 L395.184182,537.5 Z" opacity=".503"/>
      <path d="M498.780908 611.5L534.254122 543 498.780908 474.5 400.183234 474.5 364.71002 543 400.183234 611.5 498.780908 611.5zM1097.51619 139L1132.9894 70.5 1097.51619 2 998.918514 2 963.4453 70.5 998.918514 139 1097.51619 139zM746.165367 316.5L781.638581 248 746.165367 179.5 647.567693 179.5 612.094479 248 647.567693 316.5 746.165367 316.5zM975.985868 434L1011.45908 365.5 975.985868 297 877.388194 297 841.91498 365.5 877.388194 434 975.985868 434zM822.184182 611.5L857.657396 543 822.184182 474.5 723.586508 474.5 688.113294 543 723.586508 611.5 822.184182 611.5zM707.054257 140L742.527471 71.5 707.054257 3 608.456583 3 572.983369 71.5 608.456583 140 707.054257 140zM949.684182 216.5L985.157396 148 949.684182 79.5 851.086508 79.5 815.613294 148 851.086508 216.5 949.684182 216.5zM296.676248 136.5L311.435177 108 296.676248 79.5 255.525611 79.5 240.766682 108 255.525611 136.5 296.676248 136.5zM280.56248 538L295.321408 509.5 280.56248 481 239.411842 481 224.652914 509.5 239.411842 538 280.56248 538z" opacity=".503"/>
      <path d="M982.894485,116.25 L997.653414,87.75 L982.894485,59.25 L941.743848,59.25 L926.98492,87.75 L941.743848,116.25 L982.894485,116.25 Z" opacity=".503"/>
      <path d="M954.949154 69.5L969.708083 41 954.949154 12.5 913.798517 12.5 899.039588 41 913.798517 69.5 954.949154 69.5zM882.028393 59L896.787322 30.5 882.028393 2 840.877756 2 826.118827 30.5 840.877756 59 882.028393 59zM1121.1021 485.5L1135.86103 457 1121.1021 428.5 1079.95146 428.5 1065.19253 457 1079.95146 485.5 1121.1021 485.5zM333.754601 362.5L348.51353 334 333.754601 305.5 292.603964 305.5 277.845035 334 292.603964 362.5 333.754601 362.5zM662.277177 449L677.036106 420.5 662.277177 392 621.12654 392 606.367612 420.5 621.12654 449 662.277177 449zM341.102099 282.5L355.861028 254 341.102099 225.5 299.951462 225.5 285.192533 254 299.951462 282.5 341.102099 282.5zM652.280938 529L667.039867 500.5 652.280938 472 611.130301 472 596.371373 500.5 611.130301 529 652.280938 529zM999.02286 484.5L1013.78179 456 999.02286 427.5 957.872223 427.5 943.113294 456 957.872223 484.5 999.02286 484.5zM1120.97262 148L1135.73155 119.5 1120.97262 91 1079.82198 91 1065.06305 119.5 1079.82198 148 1120.97262 148zM510.252695 238.5L551.422338 159 510.252695 79.5 395.857086 79.5 354.687443 159 395.857086 238.5 510.252695 238.5z" opacity=".503"/>
      <path d="M470.526157 132.5L504.4458 67 470.526157 1.5 376.237011 1.5 342.317368 67 376.237011 132.5 470.526157 132.5zM603.691385 509L644.861028 429.5 603.691385 350 489.295776 350 448.126133 429.5 489.295776 509 603.691385 509zM1098.67855 611.5L1139.84819 532 1098.67855 452.5 984.282937 452.5 943.113294 532 984.282937 611.5 1098.67855 611.5zM160.678546 426.5L201.848189 347 160.678546 267.5 46.282937 267.5 5.11329414 347 46.282937 426.5 160.678546 426.5zM156.691385 611.5L197.861028 532 156.691385 452.5 42.2957761 452.5 1.12613322 532 42.2957761 611.5 156.691385 611.5zM841.184965 443.5L882.354608 364 841.184965 284.5 726.789357 284.5 685.619714 364 726.789357 443.5 841.184965 443.5zM1098.67855 373.5L1139.84819 294 1098.67855 214.5 984.282937 214.5 943.113294 294 984.282937 373.5 1098.67855 373.5zM292.579059 339.5L311.998702 302 292.579059 264.5 238.502839 264.5 219.083196 302 238.502839 339.5 292.579059 339.5zM625.669251 297.5L666.838894 218 625.669251 138.5 511.273643 138.5 470.104 218 511.273643 297.5 625.669251 297.5z" opacity=".503"/>
    </g>
    <g opacity=".397" transform="rotate(-180 720.25 306.25)">
      <path d="M109.385747,156.5 L137.86789,101.5 L109.385747,46.5 L30.1764486,46.5 L1.6943057,101.5 L30.1764486,156.5 L109.385747,156.5 Z" opacity=".174"/>
      <path d="M22.6670949 194.5L80.6927992 194.5 101.536549 154.25 80.6927992 114 22.6670949 114 1.82334493 154.25 22.6670949 194.5zM74.3421917 569L93.502906 532 74.3421917 495 20.9840592 495 1.82334493 532 20.9840592 569 74.3421917 569zM74.2131525 75L93.3738668 38 74.2131525 1 20.85502 1 1.6943057 38 20.85502 75 74.2131525 75z" opacity=".174"/>
      <path d="M135.894233 310L171.367447 241.5 135.894233 173 37.2965592 173 1.82334493 241.5 37.2965592 310 135.894233 310zM34.2772022 447.418697L124.859143 447.418697 157.442039 384.5 124.859143 321.581303 34.2772022 321.581303 1.6943057 384.5 34.2772022 447.418697z" opacity=".174"/>
    </g>
    <g opacity=".397" transform="translate(0 1)">
      <path d="M112.804736,199 L141.286879,144 L112.804736,89 L33.595437,89 L5.11329414,144 L33.595437,199 L112.804736,199 Z" opacity=".174"/>
      <path d="M205.804736,149.5 L234.286879,94.5 L205.804736,39.5 L126.595437,39.5 L98.1132941,94.5 L126.595437,149.5 L205.804736,149.5 Z" opacity=".174"/>
      <path d="M118.817575 111.5L147.299718 56.5 118.817575 1.5 39.6082761 1.5 11.1261332 56.5 39.6082761 111.5 118.817575 111.5zM235.632141 562L254.792855 525 235.632141 488 182.274008 488 163.113294 525 182.274008 562 235.632141 562zM232.743251 75.5L251.903965 38.5 232.743251 1.5 179.385118 1.5 160.224404 38.5 179.385118 75.5 232.743251 75.5zM208.397108 303L243.870322 234.5 208.397108 166 109.799434 166 74.3262197 234.5 109.799434 303 208.397108 303zM297.184182 446L332.657396 377.5 297.184182 309 198.586508 309 163.113294 377.5 198.586508 446 297.184182 446z" opacity=".174"/>
      <path d="M160.678546 413L201.848189 333.5 160.678546 254 46.282937 254 5.11329414 333.5 46.282937 413 160.678546 413zM156.691385 609L197.861028 529.5 156.691385 450 42.2957761 450 1.12613322 529.5 42.2957761 609 156.691385 609z" opacity=".174"/>
    </g>
  </g>
</svg>
