<svg width="19" height="21" viewBox="0 0 19 21" fill="none" xmlns="http://www.w3.org/2000/svg">
<path d="M17.6595 4.26562H14.4798V1.08594C14.4798 0.762344 14.2175 0.5 13.8939 0.5H1.3418C1.0182 0.5 0.755859 0.762344 0.755859 1.08594V16.1485C0.755859 16.4721 1.0182 16.7344 1.3418 16.7344H4.52149V19.9141C4.52149 20.2377 4.78383 20.5 5.10742 20.5H17.6595C17.9831 20.5 18.2455 20.2377 18.2455 19.9141V4.85156C18.2455 4.52797 17.9831 4.26562 17.6595 4.26562ZM1.92773 15.5625V1.67188H13.308V4.84176C13.3079 4.84504 13.3075 4.84824 13.3075 4.85156C13.3075 4.85488 13.3079 4.85809 13.308 4.86141V15.5625H1.92773ZM17.0736 19.3281H5.69336V16.7344H13.8939C14.2175 16.7344 14.4798 16.4721 14.4798 16.1485V5.4375H17.0736V19.3281Z" fill="#5B44BA"/>
</svg>
