<svg width="23" height="24" viewBox="0 0 23 24" fill="none" xmlns="http://www.w3.org/2000/svg">
<path d="M11.3792 0.681885C9.95654 0.681885 8.86862 1.83025 8.86862 3.33195V8.63207C8.86862 10.1338 9.95654 11.2821 11.3792 11.2821H16.4004L19.7478 14.8156V11.2821C21.1705 11.2821 22.2584 10.1338 22.2584 8.63207V3.33195C22.2584 1.83025 21.1705 0.681885 19.7478 0.681885H11.3792ZM14.884 3.33195H16.3217L17.7343 8.63207H16.479L16.1384 7.30704H14.8831L14.5702 8.63207H13.4714L14.884 3.33195ZM15.5635 4.2153C15.4798 4.56864 15.3861 4.99972 15.3016 5.26473L15.0673 6.42369H16.0606L15.8246 5.26384C15.6581 4.99972 15.5635 4.56864 15.5635 4.2153ZM3.01059 9.51543C1.58792 9.51543 0.5 10.6638 0.5 12.1655V17.4656C0.5 18.9673 1.58792 20.1157 3.01059 20.1157V23.6491L6.35803 20.1157H11.3792C12.8019 20.1157 13.8898 18.9673 13.8898 17.4656V12.1655H11.3792C9.78917 12.1655 8.52885 11.0171 8.11042 9.51543H3.01059ZM6.85513 12.0825C8.27779 12.0825 8.94728 13.3191 8.94728 14.7325C8.94728 15.9692 8.54475 16.7536 7.87526 17.107C8.21001 17.2836 8.60668 17.3773 9.02511 17.4656L8.71212 18.349C8.12632 18.1723 7.51876 17.8967 6.93296 17.6308C6.84927 17.5425 6.70282 17.5486 6.61913 17.5486C5.6149 17.4603 4.68431 16.5823 4.68431 14.8156C4.68431 13.3138 5.51615 12.0825 6.85513 12.0825ZM6.85513 13.0488C6.18564 13.0488 5.86094 13.8439 5.86094 14.8156C5.86094 15.8756 6.18564 16.5823 6.85513 16.5823C7.52462 16.5823 7.87443 15.7872 7.87443 14.8156C7.87443 13.8439 7.52462 13.0488 6.85513 13.0488Z" fill="#042A2B"/>
</svg>
