<svg width="23" height="23" viewBox="0 0 23 23" fill="none" xmlns="http://www.w3.org/2000/svg">
<path d="M11.5012 0.69336C5.42303 0.690836 0.5 5.74523 0.5 11.9837C0.5 16.9169 3.57966 21.1104 7.86856 22.6504C8.44615 22.7994 8.35767 22.3778 8.35767 22.09V20.1333C5.0224 20.5348 4.88722 18.2676 4.66356 17.8889C4.21132 17.0962 3.14216 16.8942 3.46168 16.5155C4.22115 16.1141 4.99536 16.6165 5.89247 17.9773C6.54134 18.9644 7.80712 18.7978 8.44861 18.6337C8.58871 18.0404 8.88856 17.5102 9.30148 17.0987C5.84577 16.4625 4.40549 14.2963 4.40549 11.7211C4.40549 10.4714 4.80611 9.32269 5.59262 8.39614C5.09122 6.86871 5.63931 5.56093 5.71305 5.36653C7.14105 5.23525 8.62557 6.41679 8.74109 6.51021C9.55217 6.28551 10.4788 6.16685 11.516 6.16685C12.5581 6.16685 13.4872 6.29056 14.3056 6.51778C14.5833 6.30066 15.9597 5.28574 17.287 5.40945C17.3582 5.60385 17.894 6.88133 17.4221 8.38856C18.2185 9.31764 18.624 10.4765 18.624 11.7287C18.624 14.3089 17.1739 16.4776 13.7084 17.1037C14.0052 17.4036 14.2409 17.7612 14.4017 18.1557C14.5624 18.5501 14.6451 18.9735 14.6448 19.4012V22.2414C14.6645 22.4687 14.6448 22.6934 15.0135 22.6934C19.3663 21.1861 22.5 16.9624 22.5 11.9862C22.5 5.74523 17.5745 0.69336 11.5012 0.69336Z" fill="#042A2B"/>
</svg>
