<svg width="14" height="15" viewBox="0 0 14 15" fill="none" xmlns="http://www.w3.org/2000/svg">
<path d="M7.00078 0.476563C3.13283 0.474956 0 3.69139 0 7.66132C0 10.8006 1.95978 13.4692 4.68909 14.4493C5.05664 14.544 5.00034 14.2757 5.00034 14.0926V12.8475C2.87789 13.1029 2.79187 11.6602 2.64954 11.4192C2.36175 10.9147 1.68138 10.7862 1.88471 10.5452C2.368 10.2897 2.86069 10.6095 3.43157 11.4754C3.84449 12.1036 4.64998 11.9976 5.05821 11.8931C5.14736 11.5156 5.33817 11.1782 5.60094 10.9163C3.40185 10.5114 2.48531 9.13298 2.48531 7.49424C2.48531 6.69896 2.74025 5.96796 3.24076 5.37833C2.92168 4.40633 3.27047 3.57411 3.31739 3.4504C4.22612 3.36685 5.17082 4.11875 5.24433 4.17819C5.76047 4.0352 6.35013 3.95969 7.01017 3.95969C7.67333 3.95969 8.26455 4.03842 8.78539 4.18301C8.96213 4.04484 9.83801 3.39899 10.6826 3.47771C10.728 3.60142 11.0689 4.41436 10.7686 5.37351C11.2754 5.96474 11.5335 6.70218 11.5335 7.49906C11.5335 9.14101 10.6107 10.5211 8.40532 10.9195C8.59421 11.1103 8.7442 11.3379 8.84651 11.5889C8.94883 11.84 9.00142 12.1094 9.00123 12.3815V14.189C9.01374 14.3336 9.00123 14.4766 9.23584 14.4766C12.0058 13.5174 14 10.8296 14 7.66293C14 3.69139 10.8656 0.476563 7.00078 0.476563Z" fill="white"/>
</svg>
