<svg width="15" height="15" viewBox="0 0 15 15" fill="none" xmlns="http://www.w3.org/2000/svg">
<path d="M7.50078 0.500001C3.63283 0.498394 0.5 3.71483 0.5 7.68476C0.5 10.8241 2.45978 13.4927 5.18909 14.4727C5.55664 14.5675 5.50034 14.2992 5.50034 14.116V12.8709C3.37789 13.1263 3.29187 11.6836 3.14954 11.4426C2.86175 10.9381 2.18138 10.8096 2.38471 10.5686C2.868 10.3132 3.36069 10.6329 3.93157 11.4989C4.34449 12.127 5.14998 12.021 5.55821 11.9166C5.64736 11.539 5.83817 11.2016 6.10094 10.9398C3.90185 10.5349 2.98531 9.15641 2.98531 7.51767C2.98531 6.7224 3.24025 5.99139 3.74076 5.40177C3.42168 4.42977 3.77047 3.59754 3.81739 3.47384C4.72612 3.39029 5.67082 4.14219 5.74433 4.20163C6.26047 4.05864 6.85013 3.98313 7.51017 3.98313C8.17333 3.98313 8.76455 4.06185 9.28539 4.20645C9.46213 4.06828 10.338 3.42242 11.1826 3.50115C11.228 3.62486 11.5689 4.4378 11.2686 5.39695C11.7754 5.98818 12.0335 6.72562 12.0335 7.52249C12.0335 9.16445 11.1107 10.5445 8.90532 10.943C9.09421 11.1338 9.2442 11.3613 9.34651 11.6124C9.44883 11.8634 9.50142 12.1328 9.50123 12.405V14.2124C9.51374 14.357 9.50123 14.5 9.73584 14.5C12.5058 13.5409 14.5 10.853 14.5 7.68637C14.5 3.71483 11.3656 0.500001 7.50078 0.500001Z" fill="#042A2B"/>
</svg>
