<svg width="24" height="24" viewBox="0 0 24 24" fill="none" xmlns="http://www.w3.org/2000/svg">
<path d="M10.7073 16.8425C10.7073 17.1809 10.8417 17.5054 11.081 17.7447C11.3203 17.984 11.6448 18.1184 11.9832 18.1184C12.3216 18.1184 12.6462 17.984 12.8854 17.7447C13.1247 17.5054 13.2591 17.1809 13.2591 16.8425C13.2591 16.5041 13.1247 16.1796 12.8854 15.9403C12.6462 15.701 12.3216 15.5666 11.9832 15.5666C11.6448 15.5666 11.3203 15.701 11.081 15.9403C10.8417 16.1796 10.7073 16.5041 10.7073 16.8425ZM12.6212 13.8654C12.7381 13.8654 12.8338 13.7697 12.8338 13.6527V6.42257C12.8338 6.30561 12.7381 6.20992 12.6212 6.20992H11.3453C11.2283 6.20992 11.1326 6.30561 11.1326 6.42257V13.6527C11.1326 13.7697 11.2283 13.8654 11.3453 13.8654H12.6212ZM23.2538 8.86807H21.6775C21.6084 8.86807 21.5446 8.89997 21.5047 8.95579L18.6738 12.858L17.3474 11.0291C17.3277 11.0018 17.3018 10.9795 17.2717 10.9642C17.2416 10.949 17.2083 10.9411 17.1746 10.9414H15.5983C15.4255 10.9414 15.3245 11.1381 15.4255 11.279L18.3282 15.2848C18.368 15.3392 18.42 15.3835 18.48 15.414C18.5401 15.4444 18.6065 15.4603 18.6738 15.4603C18.7411 15.4603 18.8075 15.4444 18.8676 15.414C18.9276 15.3835 18.9796 15.3392 19.0194 15.2848L23.4266 9.20565C23.5276 9.06477 23.4266 8.86807 23.2538 8.86807ZM22.0842 17.002H20.3777C20.2315 17.002 20.0959 17.0791 20.0162 17.2014C19.6389 17.8008 19.1948 18.3555 18.6924 18.8547C17.8289 19.7189 16.8061 20.4076 15.6807 20.8829C14.514 21.375 13.2601 21.6272 11.9939 21.6245C10.7153 21.6245 9.47394 21.3747 8.30701 20.8829C7.18159 20.4076 6.15886 19.7189 5.29533 18.8547C4.429 17.9935 3.73915 16.9713 3.2645 15.8457C2.77009 14.6814 2.52022 13.4401 2.52022 12.1642C2.52022 10.8883 2.77009 9.64691 3.2645 8.48264C3.74031 7.35558 4.42345 6.34283 5.29533 5.47361C6.1672 4.6044 7.17996 3.92125 8.30701 3.44544C9.47376 2.95337 10.7276 2.70116 11.9939 2.70382C13.2724 2.70382 14.5138 2.95368 15.6807 3.44544C16.8078 3.92125 17.8205 4.6044 18.6924 5.47361C19.1975 5.97866 19.6387 6.53156 20.0162 7.12698C20.0933 7.25191 20.2315 7.32634 20.3777 7.32634H22.0842C22.2437 7.32634 22.3447 7.15888 22.2756 7.018C20.4043 3.29924 16.5739 0.734129 12.1347 0.680966C5.78709 0.606538 0.513316 5.79791 0.500026 12.1429C0.486735 18.4932 5.63823 23.6474 11.9939 23.6474C16.4915 23.6474 20.383 21.069 22.2729 17.3104C22.2892 17.278 22.297 17.2421 22.2955 17.2059C22.294 17.1697 22.2833 17.1345 22.2644 17.1036C22.2455 17.0728 22.219 17.0472 22.1875 17.0294C22.156 17.0117 22.1204 17.0022 22.0842 17.002Z" fill="#39B708"/>
</svg>
