<svg width="86" height="34" viewBox="0 0 86 34" fill="none" xmlns="http://www.w3.org/2000/svg">
<path d="M41.5885 22.6107V24.225H34.7246V8.91858H36.7437V22.6107H41.5885Z" fill="white"/>
<path d="M46.0252 24.2251H44.0088V12.9199H46.0252V24.2251ZM45.0158 10.9224C44.6837 10.9224 44.3948 10.8152 44.1493 10.6009C43.9182 10.3722 43.8066 10.0724 43.8066 9.7008C43.8066 9.32921 43.9182 9.0359 44.1493 8.82152C44.3948 8.59285 44.6837 8.47852 45.0158 8.47852C45.348 8.47852 45.6296 8.59285 45.8608 8.82152C46.1063 9.0359 46.229 9.32888 46.229 9.70047C46.229 10.0721 46.1063 10.3722 45.8608 10.6009C45.6296 10.8152 45.348 10.9224 45.0158 10.9224Z" fill="white"/>
<path d="M50.4698 12.9203H53.2958V14.5067H50.4698L50.4687 20.4963C50.4687 21.268 50.606 21.8111 50.8804 22.1255C51.1692 22.4256 51.552 22.5757 52.0286 22.5757C52.2741 22.5757 52.5052 22.54 52.7219 22.4685C52.9529 22.3971 53.1479 22.3113 53.3067 22.2112L53.6751 23.6905C53.0829 24.0335 52.3002 24.2049 51.6358 24.2049C50.5671 24.2049 49.7654 23.912 49.2311 23.3261C48.7111 22.7258 48.4512 21.7397 48.4512 20.3676L48.4523 9.89756L50.4698 9.57599V12.9203Z" fill="white"/>
<path d="M55.7188 12.6878C56.2345 12.5257 56.7945 12.3928 57.3987 12.2896C58.0028 12.1716 58.5553 12.1127 59.0565 12.1127C59.5722 12.1127 60.0363 12.1791 60.4489 12.3118C60.8762 12.4445 61.252 12.6657 61.5762 12.9754C61.9593 12.7247 62.3719 12.5182 62.8139 12.356C63.256 12.1938 63.7424 12.1127 64.2728 12.1127C64.8033 12.1127 65.2821 12.1938 65.7096 12.356C66.1516 12.5035 66.5273 12.7616 66.8367 13.1303C67.1462 13.499 67.3894 14.0004 67.5662 14.6346C67.743 15.254 67.8314 16.0282 67.8314 16.9573V24.2253H65.9306V17.1123C65.9306 15.9618 65.798 15.1212 65.5326 14.5903C65.2674 14.0595 64.7664 13.794 64.0296 13.794C63.7497 13.794 63.4624 13.8456 63.1676 13.9488C62.8876 14.052 62.6224 14.1921 62.3719 14.3691C62.4897 14.7083 62.5782 15.0917 62.6371 15.5194C62.696 15.9472 62.7255 16.4264 62.7255 16.9573V24.2253H60.8247V17.1123C60.8247 15.9618 60.6921 15.1212 60.4268 14.5903C60.1616 14.0595 59.6606 13.794 58.9238 13.794C58.5406 13.794 58.106 13.8677 57.6197 14.0152L57.6197 24.2253H55.7188V12.6878Z" fill="white"/>
<path d="M77.4973 23.6681C77.3095 23.7395 77.0783 23.811 76.8039 23.8824C76.544 23.9396 76.2624 23.9896 75.9591 24.0325C75.6703 24.0897 75.3741 24.1325 75.0708 24.1612C74.782 24.204 74.5147 24.2254 74.2692 24.2254C73.6771 24.2254 73.1355 24.154 72.6444 24.011C72.1533 23.8824 71.7345 23.6466 71.3879 23.3036C71.0413 22.9607 70.7741 22.4961 70.5863 21.9102C70.3985 21.3099 70.3047 20.5596 70.3047 19.6592V12.9202H72.1678V19.5948C72.1678 20.6953 72.3339 21.4743 72.6661 21.9316C73.0127 22.3746 73.5326 22.5961 74.2259 22.5961C74.457 22.5961 74.688 22.589 74.9191 22.5747C75.1503 22.5461 75.3886 22.4961 75.6341 22.4246V12.9202H77.4973V23.6681Z" fill="white"/>
<path d="M82.2018 22.5986C82.7884 22.5986 83.2284 22.4448 83.5216 22.1369C83.8304 21.8145 83.9847 21.3968 83.9847 20.8839C83.9847 20.5615 83.923 20.2904 83.7995 20.0705C83.676 19.8361 83.5139 19.6308 83.3132 19.455C83.1125 19.2791 82.881 19.1253 82.6186 18.9934C82.3562 18.8469 82.0938 18.6929 81.8313 18.5318C81.5689 18.3852 81.3142 18.2166 81.0672 18.0261C80.8202 17.821 80.5965 17.5938 80.3958 17.3447C80.2106 17.0809 80.0562 16.7878 79.9327 16.4653C79.8247 16.1282 79.7706 15.7398 79.7706 15.3003C79.7706 14.3476 80.0793 13.5783 80.6967 12.992C81.3296 12.4058 82.1787 12.1127 83.2438 12.1127C83.6914 12.1127 84.116 12.1714 84.5173 12.2885C84.9186 12.3911 85.2505 12.5084 85.5129 12.6403L85.073 14.1571C84.7952 14.0105 84.5173 13.9007 84.2395 13.8274C83.9616 13.7541 83.6606 13.7174 83.3364 13.7174C82.8425 13.7174 82.4488 13.8567 82.1555 14.1351C81.8622 14.3989 81.7156 14.7873 81.7156 15.3003C81.7156 15.5934 81.7696 15.8498 81.8777 16.0697C81.9857 16.2748 82.1246 16.4653 82.2944 16.6412C82.4797 16.8025 82.6803 16.9563 82.8964 17.1029C83.128 17.2494 83.3673 17.3886 83.6143 17.5205C83.9075 17.6817 84.1932 17.8575 84.471 18.0481C84.7643 18.2386 85.0189 18.4658 85.235 18.7296C85.4666 18.9787 85.6518 19.2791 85.7907 19.6308C85.9296 19.9679 85.9992 20.3783 85.9992 20.8619C85.9992 21.8731 85.6827 22.6866 85.0498 23.3021C84.4324 23.9176 83.5216 24.2253 82.3176 24.2253C81.7002 24.2253 81.1444 24.1448 80.6504 23.9835C80.1565 23.8224 79.786 23.6758 79.5391 23.5438L79.9558 21.9831C80.1874 22.1004 80.4961 22.2322 80.882 22.3788C81.2833 22.5253 81.7233 22.5986 82.2018 22.5986Z" fill="white"/>
<path fill-rule="evenodd" clip-rule="evenodd" d="M26.2441 0H0V30.6249C0 31.9963 1.10155 33.108 2.46039 33.108H23.7837C25.1426 33.108 26.2441 31.9963 26.2441 30.6249V0Z" fill="white"/>
<path d="M4.03711 4.03754H8.07467V13.3239H4.03711V4.03754Z" fill="#858CDD"/>
<path d="M4.03711 12.5164H8.07467V29.0704H4.03711V12.5164Z" fill="#6454C2"/>
<path d="M10.0938 25.0328H22.2064V29.0704H10.0938V25.0328Z" fill="#6454C2"/>
</svg>
