<svg width="23" height="23" viewBox="0 0 23 23" fill="none" xmlns="http://www.w3.org/2000/svg">
<path d="M5.18306 14.5999C5.18306 15.8785 4.15046 16.912 2.87278 16.912C1.5951 16.912 0.5625 15.8785 0.5625 14.5999C0.5625 13.3214 1.5951 12.2881 2.87287 12.2881H5.18298V14.6L5.18306 14.5999ZM6.33825 14.5999C6.33825 13.3214 7.37085 12.2881 8.64853 12.2881C9.92621 12.2881 10.9588 13.3214 10.9588 14.6V20.3798C10.9588 21.6584 9.92621 22.6919 8.64845 22.6919C7.37094 22.6919 6.33825 21.6584 6.33825 20.3798V14.6V14.5999Z" fill="#E01E5A"/>
<path d="M8.64844 5.31578C7.37076 5.31578 6.33807 4.28243 6.33807 3.00384C6.33807 1.72524 7.37085 0.691895 8.64844 0.691895C9.92603 0.691895 10.9587 1.72524 10.9587 3.00384V5.31587H8.64835L8.64844 5.31578ZM8.64844 6.48929C9.92612 6.48929 10.9587 7.52264 10.9587 8.80123C10.9587 10.0798 9.92612 11.1132 8.64835 11.1132H2.85529C1.57752 11.1132 0.544922 10.0798 0.544922 8.80115C0.544922 7.52272 1.57752 6.48929 2.8552 6.48929H8.64835H8.64844Z" fill="#36C5F0"/>
<path d="M17.9066 8.80123C17.9066 7.52264 18.9392 6.48921 20.2168 6.48921C21.4945 6.48921 22.5272 7.52264 22.5272 8.80123C22.5272 10.0798 21.4945 11.1132 20.2168 11.1132H17.9066V8.80115V8.80123ZM16.7514 8.80123C16.7514 10.0798 15.7187 11.1132 14.4411 11.1132C13.1635 11.1132 12.1309 10.0798 12.1309 8.80115V3.00392C12.1309 1.72524 13.1635 0.691895 14.4411 0.691895C15.7187 0.691895 16.7513 1.72524 16.7513 3.00384V8.80115L16.7514 8.80123Z" fill="#2EB67D"/>
<path d="M14.4411 18.068C15.7187 18.068 16.7514 19.1013 16.7514 20.3798C16.7514 21.6584 15.7187 22.6919 14.4411 22.6919C13.1635 22.6919 12.1309 21.6584 12.1309 20.3798V18.068H14.4411H14.4411ZM14.4411 16.912C13.1635 16.912 12.1309 15.8785 12.1309 14.5999C12.1309 13.3214 13.1635 12.2881 14.4411 12.2881H20.2343C21.512 12.2881 22.5447 13.3214 22.5447 14.6C22.5447 15.8785 21.512 16.912 20.2343 16.912H14.4411H14.4411Z" fill="#ECB22E"/>
</svg>
