<svg width="23" height="23" viewBox="0 0 23 23" fill="none" xmlns="http://www.w3.org/2000/svg">
<path d="M13.0357 8.66402C13.0323 8.66178 13.028 8.6605 13.0235 8.66038H13.0053V8.74775H13.0235C13.028 8.74764 13.0323 8.74636 13.0357 8.74411C13.0398 8.74168 13.0418 8.73803 13.0418 8.73318V8.67495C13.0418 8.6701 13.0397 8.66646 13.0357 8.66402ZM13.3326 8.5166H12.956C12.9307 8.5166 12.9102 8.53298 12.9102 8.55323V8.85461C12.9102 8.87486 12.9307 8.89124 12.956 8.89124H13.3326C13.3579 8.89124 13.3784 8.87486 13.3785 8.85461V8.55323C13.3784 8.54351 13.3736 8.53419 13.365 8.52732C13.3564 8.52046 13.3447 8.5166 13.3326 8.5166ZM13.0713 8.73335C13.0713 8.74907 13.0592 8.77292 13.0208 8.77285H12.9723V8.63451H13.0218C13.0589 8.63451 13.0713 8.65832 13.0713 8.67403V8.73335ZM13.1766 8.65921H13.1209V8.69135H13.1549V8.71608H13.1209V8.74819H13.1766V8.77292H13.1116C13.106 8.77303 13.1006 8.77136 13.0965 8.76826C13.0925 8.76517 13.0901 8.76092 13.09 8.75643V8.65183C13.0898 8.64734 13.0919 8.643 13.0958 8.63976C13.0996 8.63651 13.105 8.63462 13.1106 8.63451H13.1766L13.1766 8.65921ZM13.2849 8.75562C13.2711 8.78133 13.2464 8.77623 13.2353 8.75562L13.1951 8.63453H13.2291L13.2602 8.72963L13.2911 8.63453H13.3251L13.2849 8.75562Z" fill="#55ACEE"/>
<path d="M11.834 0.690186C5.75943 0.690186 0.833984 5.61563 0.833984 11.6902C0.833984 17.7647 5.75943 22.6902 11.834 22.6902C17.9085 22.6902 22.834 17.7647 22.834 11.6902C22.834 5.61563 17.9085 0.690186 11.834 0.690186ZM17.1204 8.98193C17.1277 9.09733 17.1277 9.21764 17.1277 9.3355C17.1277 12.94 14.3826 17.092 9.36635 17.092C7.81948 17.092 6.38555 16.6426 5.17751 15.8692C5.39849 15.8938 5.60965 15.9036 5.83555 15.9036C7.11233 15.9036 8.28599 15.4714 9.22148 14.7397C8.02327 14.7152 7.01657 13.9295 6.67282 12.8491C7.09269 12.9105 7.47081 12.9105 7.90296 12.8C7.28599 12.6747 6.73145 12.3396 6.33353 11.8517C5.93562 11.3638 5.71888 10.7532 5.72014 10.1237V10.0893C6.08108 10.2931 6.50586 10.4183 6.95028 10.4355C6.57668 10.1865 6.27029 9.84918 6.05828 9.45343C5.84626 9.05767 5.73518 8.61572 5.73488 8.16675C5.73488 7.65849 5.86747 7.19443 6.10564 6.79175C6.79044 7.63476 7.64497 8.32424 8.6137 8.81537C9.58242 9.3065 10.6436 9.58829 11.7284 9.64242C11.3429 7.78862 12.7277 6.2884 14.3925 6.2884C15.1782 6.2884 15.8853 6.61742 16.3838 7.14777C17.0001 7.03237 17.5893 6.80157 18.1148 6.49219C17.911 7.12322 17.4838 7.65603 16.9166 7.99242C17.4666 7.93349 17.9969 7.78126 18.488 7.56764C18.1172 8.11273 17.6532 8.59644 17.1204 8.98193Z" fill="#55ACEE"/>
</svg>
