<svg width="23" height="17" viewBox="0 0 23 17" fill="none" xmlns="http://www.w3.org/2000/svg">
<path d="M22.6196 4.02187C22.6196 4.02187 22.4049 2.50937 21.7434 1.83906C20.9101 0.9625 19.9738 0.9625 19.5357 0.910937C16.469 0.6875 11.8559 0.6875 11.8559 0.6875H11.8473C11.8473 0.6875 7.23423 0.6875 4.15027 0.910937C3.72076 0.9625 2.78438 0.9625 1.94254 1.83906C1.28967 2.50937 1.07491 4.02187 1.07491 4.02187C1.07491 4.02187 0.851562 5.80938 0.851562 7.58828V9.25547C0.851562 11.0344 1.07491 12.8133 1.07491 12.8133C1.07491 12.8133 1.28967 14.3258 1.95113 14.9961C2.78438 15.8727 3.88395 15.8469 4.37363 15.9328C6.13466 16.1047 11.8473 16.1562 11.8473 16.1562C11.8473 16.1562 16.4689 16.1477 19.5443 15.9242C19.9738 15.8727 20.9101 15.8727 21.752 14.9961C22.4135 14.3258 22.6282 12.8133 22.6282 12.8133C22.6282 12.8133 22.8516 11.0344 22.8516 9.25547V7.58828C22.843 5.80938 22.6196 4.02187 22.6196 4.02187ZM9.57946 11.275V5.09609L15.5239 8.19844L9.57946 11.275Z" fill="url(#paint0_linear)"/>
<defs>
<linearGradient id="paint0_linear" x1="11.8472" y1="0.6875" x2="11.8472" y2="16.1609" gradientUnits="userSpaceOnUse">
<stop stop-color="#E52D27"/>
<stop offset="1" stop-color="#BF171D"/>
</linearGradient>
</defs>
</svg>
