<svg id="svg" version="1.1" xmlns="http://www.w3.org/2000/svg" xmlns:xlink="http://www.w3.org/1999/xlink" width="400" height="380.49678012879485" viewBox="0, 0, 400,380.49678012879485"><g id="svgg"><path id="path0" d="M134.407 98.360 C 134.204 98.396,132.052 98.554,129.623 98.711 C 105.644 100.265,87.838 104.092,67.709 112.019 L 65.409 112.924 65.362 128.219 C 65.336 136.632,65.347 143.514,65.387 143.514 C 65.426 143.514,66.959 142.767,68.793 141.854 C 107.263 122.693,149.544 120.525,194.112 135.428 C 204.889 139.031,214.097 142.938,221.527 147.060 L 223.643 148.233 223.755 139.572 C 223.816 134.808,223.878 127.863,223.893 124.138 L 223.919 117.366 222.125 116.530 C 200.575 106.484,177.103 100.686,149.954 98.703 C 146.390 98.443,135.320 98.199,134.407 98.360 M227.047 134.662 L 227.047 150.281 229.206 151.636 C 237.161 156.626,245.609 163.385,253.921 171.412 C 262.397 179.597,269.549 180.660,276.114 174.711 C 281.544 169.792,282.212 163.385,277.969 156.917 C 274.013 150.886,255.569 135.739,241.766 127.187 C 236.929 124.190,227.704 119.043,227.169 119.043 C 227.102 119.043,227.047 126.072,227.047 134.662 M221.803 199.572 C 221.398 199.607,219.287 199.761,217.111 199.915 C 182.640 202.357,152.655 215.704,130.259 238.574 C 123.731 245.241,122.717 251.072,127.034 257.122 C 132.611 264.936,141.320 265.521,149.034 258.600 C 150.271 257.490,152.563 255.612,159.768 249.807 C 186.707 228.099,226.328 221.017,259.290 232.019 C 272.303 236.363,280.222 241.107,299.172 255.914 C 306.367 261.535,310.802 263.397,316.174 263.053 C 329.032 262.228,331.675 247.121,320.794 236.644 C 306.229 222.618,285.306 210.912,264.385 205.084 C 250.773 201.292,231.271 198.768,221.803 199.572 " stroke="none" fill="#5bc4d4" fill-rule="evenodd"></path><path id="path1" d="M63.661 212.328 L 63.661 380.497 231.831 380.497 L 400.000 380.497 400.000 212.328 L 400.000 44.158 231.831 44.158 L 63.661 44.158 63.661 212.328 M134.928 56.164 C 134.995 61.856,135.050 69.867,135.051 73.965 C 135.051 78.063,135.106 85.205,135.173 89.834 L 135.295 98.252 136.849 98.252 L 138.404 98.252 138.267 72.033 L 138.130 45.814 181.207 45.814 L 224.285 45.814 224.185 55.520 C 224.130 60.858,224.002 87.787,223.901 115.363 C 223.800 142.939,223.668 173.139,223.608 182.475 L 223.497 199.448 225.060 199.448 L 226.623 199.448 226.746 194.158 C 226.813 191.249,226.869 178.560,226.870 165.961 C 226.871 153.362,226.952 133.326,227.050 121.435 C 227.148 109.545,227.281 87.666,227.345 72.815 L 227.460 45.814 312.902 45.814 L 398.344 45.814 398.344 212.420 L 398.344 379.025 231.845 379.025 L 65.347 379.025 65.286 249.356 C 65.253 178.038,65.253 103.066,65.286 82.751 L 65.346 45.814 100.076 45.814 L 134.806 45.814 134.928 56.164 M226.219 249.514 C 206.328 250.877,189.348 257.985,175.877 270.587 C 168.652 277.347,166.848 283.489,170.103 290.248 C 174.482 299.341,184.881 300.784,193.841 293.542 C 218.725 273.429,243.221 272.922,267.617 292.015 C 277.665 299.878,284.404 300.487,290.809 294.112 C 297.666 287.287,296.144 278.289,286.709 269.870 C 269.649 254.648,249.624 247.909,226.219 249.514 M228.703 288.582 C 206.858 291.741,196.480 315.688,209.322 333.302 C 223.490 352.735,254.581 346.379,259.319 323.083 C 263.371 303.159,247.963 285.796,228.703 288.582 " stroke="none" fill="#1c84c4" fill-rule="evenodd"></path><path id="path2" d="M65.221 128.335 C 65.221 136.734,65.244 140.197,65.271 136.030 C 65.299 131.864,65.299 124.991,65.271 120.759 C 65.244 116.526,65.221 119.936,65.221 128.335 M223.816 137.810 C 223.816 140.593,223.841 141.732,223.873 140.340 C 223.904 138.949,223.904 136.672,223.873 135.281 C 223.841 133.889,223.816 135.028,223.816 137.810 M226.940 146.550 C 226.940 148.574,226.967 149.427,227.000 148.446 C 227.033 147.465,227.033 145.809,227.000 144.766 C 226.967 143.723,226.940 144.526,226.940 146.550 " stroke="none" fill="#44b4d4" fill-rule="evenodd"></path><path id="path3" d="M226.944 137.902 C 226.944 140.736,226.969 141.869,227.001 140.421 C 227.032 138.973,227.032 136.655,227.000 135.269 C 226.969 133.884,226.944 135.069,226.944 137.902 M223.809 145.538 C 223.809 147.107,223.837 147.748,223.872 146.964 C 223.906 146.180,223.906 144.897,223.872 144.112 C 223.837 143.328,223.809 143.970,223.809 145.538 " stroke="none" fill="#3ca4cc" fill-rule="evenodd"></path><path id="path4" d="" stroke="none" fill="#28a8cc" fill-rule="evenodd"></path></g></svg>